<svg width="23" height="16" viewBox="0 0 23 16" fill="none" xmlns="http://www.w3.org/2000/svg">
<path d="M1.15625 9C0.603965 9 0.15625 8.55228 0.15625 8C0.15625 7.44772 0.603965 7 1.15625 7L1.15625 9ZM21.9924 7.29289C22.3829 7.68342 22.3829 8.31658 21.9924 8.7071L15.6284 15.0711C15.2379 15.4616 14.6047 15.4616 14.2142 15.0711C13.8237 14.6805 13.8237 14.0474 14.2142 13.6569L19.8711 8L14.2142 2.34314C13.8237 1.95262 13.8237 1.31946 14.2142 0.928931C14.6047 0.538407 15.2379 0.538407 15.6284 0.928931L21.9924 7.29289ZM1.15625 7L21.2853 7L21.2853 9L1.15625 9L1.15625 7Z" fill="#232536"/>
</svg>
