<svg width="28" height="16" viewBox="0 0 28 16" fill="none" xmlns="http://www.w3.org/2000/svg">
<path d="M1 9C0.447715 9 0 8.55228 0 8C0 7.44772 0.447715 7 1 7V9ZM27.7071 7.29289C28.0976 7.68342 28.0976 8.31658 27.7071 8.70711L21.3431 15.0711C20.9526 15.4616 20.3195 15.4616 19.9289 15.0711C19.5384 14.6805 19.5384 14.0474 19.9289 13.6569L25.5858 8L19.9289 2.34315C19.5384 1.95262 19.5384 1.31946 19.9289 0.928932C20.3195 0.538408 20.9526 0.538408 21.3431 0.928932L27.7071 7.29289ZM1 7H27V9H1V7Z" fill="white"/>
</svg>
